<?xml version="1.0" encoding="utf-8"?>
<!-- Generator: Adobe Illustrator 22.0.1, SVG Export Plug-In . SVG Version: 6.00 Build 0)  -->
<svg version="1.1" id="Layer_1" xmlns="http://www.w3.org/2000/svg" xmlns:xlink="http://www.w3.org/1999/xlink" x="0px" y="0px"
	 viewBox="0 0 58 58" style="enable-background:new 0 0 58 58;" xml:space="preserve">
<style type="text/css">
	.st0{fill:#005FC3;}
</style>
<path class="st0" d="M29,0C13,0,0,13,0,29s13,29,29,29s29-13,29-29S45,0,29,0z M29,2c14.9,0,27,12.1,27,27S43.9,56,29,56
	S2,43.9,2,29S14.1,2,29,2z M28.6,6C22.7,6.1,17,8.5,12.7,12.7C8.4,17.1,6,22.9,6,29s2.4,11.9,6.7,16.3c0.2,0.2,0.5,0.3,0.7,0.3
	c0.3,0,0.5-0.1,0.7-0.3c0.4-0.4,0.4-1,0-1.4c-0.5-0.5-0.9-0.9-1.3-1.4c0,0,0,0,0-0.1c2.2-4.6,6.2-7.8,10.8-8.8C25.2,35,27,36,29,36
	s3.8-1,5.3-2.5c4.6,1,8.5,4.2,10.8,8.8c0,0,0,0,0,0.1c-0.4,0.5-0.8,1-1.3,1.4c-0.4,0.4-0.4,1,0,1.4c0.2,0.2,0.5,0.3,0.7,0.3
	s0.5-0.1,0.7-0.3C49.6,40.9,52,35.1,52,29s-2.4-11.9-6.7-16.3c-0.7-0.7-1.4-1.3-2.1-1.9c-0.4-0.3-1.1-0.3-1.4,0.2
	c-0.3,0.4-0.3,1.1,0.2,1.4c0.7,0.5,1.3,1.1,1.9,1.7c4,4,6.2,9.2,6.2,14.8c0,4.2-1.2,8.2-3.5,11.7c-2.4-4.4-6.3-7.5-10.7-8.8
	c1.4-2,2.3-4.5,2.3-6.8v-2c0-5-4-9-9-9s-9,4-9,9v2c0,2.3,0.9,4.8,2.2,6.8c-4.5,1.3-8.3,4.4-10.7,8.8C9.2,37.2,8,33.2,8,29
	c0-5.6,2.2-10.9,6.2-14.8c4.7-4.7,11.5-6.9,18.2-5.9C33,8.4,33.5,8,33.5,7.5s-0.3-1.1-0.8-1.1C31.3,6.1,29.9,6,28.6,6z M36.7,7.4
	c-0.4,0-0.7,0.3-0.9,0.6c-0.2,0.5,0.1,1.1,0.6,1.3c0.7,0.3,1.4,0.6,2.1,0.9c0.1,0.1,0.3,0.1,0.5,0.1c0.4,0,0.7-0.2,0.9-0.5
	c0.2-0.5,0-1.1-0.4-1.3c-0.7-0.4-1.5-0.7-2.3-1C36.9,7.4,36.8,7.4,36.7,7.4z M29,16c3.9,0,7,3.1,7,7v2c0,4-3.3,9-7,9s-7-5-7-9v-2
	C22,19.1,25.1,16,29,16z M19.4,45.4c-0.4,0-0.8,0.1-1,0.5l-1,1.7c-0.3,0.5-0.1,1.1,0.4,1.4c0.2,0.1,0.3,0.1,0.5,0.1
	c0.3,0,0.7-0.2,0.9-0.5l1-1.7c0.3-0.5,0.1-1.1-0.4-1.4C19.6,45.5,19.5,45.4,19.4,45.4z M38.6,45.4c-0.1,0-0.3,0.1-0.4,0.1
	c-0.5,0.3-0.6,0.9-0.4,1.4l1,1.7c0.2,0.3,0.5,0.5,0.9,0.5c0.2,0,0.3,0,0.5-0.1c0.5-0.3,0.6-0.9,0.4-1.4l-1-1.7
	C39.4,45.5,39,45.3,38.6,45.4z M23.8,47.3c-0.4,0.1-0.7,0.3-0.8,0.7l-0.5,2c-0.1,0.5,0.2,1.1,0.7,1.2c0.1,0,0.2,0,0.3,0
	c0.4,0,0.8-0.3,1-0.7l0.5-1.9c0.1-0.5-0.2-1.1-0.7-1.2C24.1,47.3,23.9,47.3,23.8,47.3z M34.2,47.3c-0.1,0-0.3,0-0.4,0
	c-0.5,0.1-0.9,0.7-0.7,1.2l0.5,1.9c0.1,0.4,0.5,0.7,1,0.7c0.1,0,0.2,0,0.3,0c0.5-0.1,0.9-0.7,0.7-1.2L35,48.1
	C34.9,47.7,34.6,47.4,34.2,47.3z M29,48c-0.6,0-1,0.4-1,1v2c0,0.6,0.4,1,1,1s1-0.4,1-1v-2C30,48.4,29.6,48,29,48z"/>
</svg>
