<?xml version="1.0" encoding="utf-8"?>
<!-- Generator: Adobe Illustrator 22.0.1, SVG Export Plug-In . SVG Version: 6.00 Build 0)  -->
<svg version="1.1" id="Layer_1" xmlns="http://www.w3.org/2000/svg" xmlns:xlink="http://www.w3.org/1999/xlink" x="0px" y="0px"
	 viewBox="0 0 50 50" style="enable-background:new 0 0 50 50;" xml:space="preserve">
<style type="text/css">
	.st0{fill:#005FC3;}
</style>
<path class="st0" d="M1,10v10c0,3.3,1.4,4.5,2.4,5.3C3.9,25.7,4,25.8,4,26v10c0,3.5-0.3,6,2,6c2.5,0,2-3.2,2-6V26
	c0-0.2,0-0.2,0.6-0.6c1-0.7,2.4-1.8,2.4-5.2V10H9v9c0,0.6-0.4,1-1,1s-1-0.4-1-1v-9H5v9c0,0.6-0.4,1-1,1s-1-0.4-1-1v-9H1z M43.9,10
	c-0.2,0-0.3,0.1-0.5,0.2C43.2,10.3,43,10.7,43,11v24.2c0,3.5-0.5,6.8,2,6.8c2.2,0,2-3.3,2-7v-7c0-0.9,0.4-1.8,0.8-2.8
	c0.6-1.4,1.2-3,1.2-5.2c0-1.2,0.7-7.3-4.6-9.9C44.3,10,44.1,10,43.9,10z M26.5,11c-8,0-14.5,6.5-14.5,14.5S18.5,40,26.5,40
	S41,33.5,41,25.5S34.5,11,26.5,11z M25.9,16c0.5,0,1,0.4,1.1,0.9s-0.4,1-0.9,1c-4,0.2-7.1,3.5-7.1,7.5c0,4.1,3.4,7.5,7.5,7.5
	c4,0,7.3-3.1,7.5-7.1c0-0.6,0.5-1,1-0.9c0.6,0,1,0.5,0.9,1.1c-0.3,5-4.4,8.9-9.5,8.9c-5.2,0-9.5-4.3-9.5-9.5
	C17,20.5,20.9,16.3,25.9,16z"/>
</svg>
