<?xml version="1.0" encoding="utf-8"?>
<!-- Generator: Adobe Illustrator 22.0.1, SVG Export Plug-In . SVG Version: 6.00 Build 0)  -->
<svg version="1.1" id="Layer_1" xmlns="http://www.w3.org/2000/svg" xmlns:xlink="http://www.w3.org/1999/xlink" x="0px" y="0px"
	 viewBox="0 0 49.5 47.2" style="enable-background:new 0 0 49.5 47.2;" xml:space="preserve">
<style type="text/css">
	.st0{fill:#FDD344;}
</style>
<path class="st0" d="M24.6,0c-0.4,0-0.7,0.3-0.8,0.6l-6.2,15.5L0.9,17.3c-0.5,0.1-1,0.5-0.9,1.1c0,0.3,0.1,0.5,0.3,0.7l12.8,10.7
	L9.1,46c-0.1,0.5,0.2,1.1,0.7,1.2c0.3,0.1,0.5,0,0.8-0.1l14.2-8.9l14.2,8.9c0.5,0.3,1.1,0.2,1.4-0.3c0.1-0.2,0.2-0.5,0.1-0.8
	l-4.1-16.2L49.2,19c0.4-0.4,0.5-1,0.1-1.4c-0.2-0.2-0.4-0.3-0.7-0.3l-16.7-1.2L25.7,0.6C25.5,0.2,25.1-0.1,24.6,0z M24.7,3.7
	l5.5,13.8c0.1,0.4,0.5,0.6,0.9,0.6l14.8,1l-11.4,9.5c-0.3,0.3-0.4,0.7-0.3,1l3.6,14.4l-12.6-7.9c-0.3-0.2-0.7-0.2-1.1,0l-12.6,7.9
	l3.6-14.4c0.1-0.4,0-0.8-0.3-1L3.6,19.1l14.8-1c0.4,0,0.7-0.3,0.9-0.6L24.7,3.7z"/>
</svg>
