<?xml version="1.0" encoding="utf-8"?>
<!-- Generator: Adobe Illustrator 22.0.1, SVG Export Plug-In . SVG Version: 6.00 Build 0)  -->
<svg version="1.1" id="Layer_1" xmlns="http://www.w3.org/2000/svg" xmlns:xlink="http://www.w3.org/1999/xlink" x="0px" y="0px"
	 viewBox="0 0 49.6 47.2" style="enable-background:new 0 0 49.6 47.2;" xml:space="preserve">
<style type="text/css">
	.st0{fill:#FDD344;}
</style>
<path class="st0" d="M39.5,47.2c-0.2,0-0.4-0.1-0.5-0.2l-14.2-8.9l-14.2,8.9c-0.3,0.2-0.8,0.2-1.1,0C9.2,46.8,9,46.4,9.1,46
	l4.1-16.2L0.4,19C0,18.8-0.1,18.4,0,18c0.1-0.4,0.5-0.7,0.9-0.7l16.7-1.1l6.2-15.5C24,0.2,24.4,0,24.8,0s0.8,0.2,0.9,0.6l6.2,15.5
	l16.7,1.1c0.4,0,0.8,0.3,0.9,0.7c0.1,0.4,0,0.8-0.3,1.1L36.4,29.8L40.4,46c0.1,0.4-0.1,0.8-0.4,1.1C39.9,47.2,39.7,47.2,39.5,47.2z"
	/>
</svg>
