<?xml version="1.0" encoding="utf-8"?>
<!-- Generator: Adobe Illustrator 22.0.1, SVG Export Plug-In . SVG Version: 6.00 Build 0)  -->
<svg version="1.1" id="Layer_1" xmlns="http://www.w3.org/2000/svg" xmlns:xlink="http://www.w3.org/1999/xlink" x="0px" y="0px"
	 viewBox="0 0 557.1 108.6" style="enable-background:new 0 0 557.1 108.6;" xml:space="preserve">
<style type="text/css">
	.st0{fill:#FFFFFF;}
	.st1{display:none;}
</style>
<g>
	<path class="st0" d="M274.9,2.1c4.2,0,7.5,1.1,9.8,3.2c2.3,2.1,3.5,5.4,3.5,9.7c0,3.4-0.7,6.1-2,8.2c-1.4,2.1-3.5,3.5-6.3,4.1v0.1
		c2.5,0.4,4.4,1.2,5.5,2.5c1.2,1.3,1.9,3.3,2.2,6.1c0.1,0.9,0.2,1.9,0.2,3c0,1.1,0.1,2.3,0.1,3.7c0.1,2.7,0.2,4.7,0.4,6.1
		c0.3,1.4,0.9,2.4,1.8,2.9V52h-10.9c-0.5-0.7-0.8-1.5-1-2.4c-0.1-0.9-0.2-1.9-0.3-2.8l-0.3-9.6c-0.1-2-0.6-3.5-1.5-4.6
		c-0.9-1.1-2.4-1.7-4.5-1.7h-5.4V52h-10.1v-50H274.9z M270.5,23.9c2.4,0,4.3-0.6,5.6-1.7c1.3-1.1,2-3.1,2-5.8c0-4.6-2.3-6.9-7-6.9
		h-4.8v14.4H270.5z"/>
	<path class="st0" d="M303.1,37.7c0,1.1,0.1,2.2,0.2,3.3c0.2,1.1,0.4,2,0.8,2.8c0.4,0.8,0.9,1.5,1.5,2c0.6,0.5,1.4,0.7,2.2,0.7
		c1.6,0,2.8-0.6,3.6-1.8c0.7-1.2,1.3-2.9,1.5-5.3h8.7c-0.2,4.4-1.4,7.7-3.5,10c-2.1,2.3-5.5,3.4-10.2,3.4c-3.5,0-6.2-0.6-8.2-1.8
		s-3.4-2.7-4.3-4.6c-0.9-1.9-1.5-4.1-1.7-6.4c-0.2-2.4-0.3-4.8-0.3-7.1c0-2.5,0.2-4.9,0.5-7.3c0.3-2.3,1-4.4,2.1-6.2
		s2.6-3.3,4.5-4.3c2-1.1,4.6-1.6,7.8-1.6c2.8,0,5.1,0.5,6.9,1.4c1.8,0.9,3.2,2.2,4.2,3.9c1,1.7,1.7,3.7,2.1,6c0.4,2.4,0.6,5,0.6,7.9
		v2.2h-19.1V37.7z M312.7,25.1c-0.1-1.1-0.4-2-0.7-2.8c-0.3-0.8-0.8-1.4-1.5-1.8c-0.6-0.4-1.4-0.6-2.4-0.6c-1,0-1.8,0.2-2.4,0.7
		c-0.6,0.4-1.1,1-1.5,1.8c-0.4,0.7-0.6,1.5-0.8,2.4c-0.2,0.9-0.2,1.8-0.2,2.7v1.5h9.9C313,27.5,312.9,26.2,312.7,25.1z"/>
	<path class="st0" d="M334.4,41c0,1.6,0.4,3,1.3,4c0.9,1,2.1,1.5,3.7,1.5c1.5,0,2.7-0.4,3.6-1.1c0.9-0.7,1.3-1.9,1.3-3.4
		c0-1.2-0.3-2.1-1-2.8c-0.7-0.6-1.5-1.1-2.5-1.5l-6.8-2.4c-2.7-0.9-4.7-2.3-6-4c-1.4-1.7-2-3.9-2-6.5c0-1.5,0.3-3,0.8-4.4
		c0.5-1.4,1.3-2.6,2.4-3.6c1.1-1,2.6-1.8,4.3-2.5c1.8-0.6,3.9-0.9,6.3-0.9c4.4,0,7.6,0.9,9.7,2.8c2.1,1.9,3.2,4.5,3.2,7.9v1.5H344
		c0-2-0.3-3.4-0.9-4.3c-0.6-0.9-1.7-1.4-3.3-1.4c-1.2,0-2.3,0.3-3.2,1c-0.9,0.7-1.4,1.7-1.4,3c0,0.9,0.3,1.8,0.9,2.5
		c0.6,0.7,1.7,1.4,3.3,1.9l5.8,2c3,1,5.2,2.4,6.4,4c1.3,1.7,1.9,3.9,1.9,6.8c0,2-0.3,3.7-1,5.2c-0.7,1.5-1.7,2.7-2.9,3.7
		c-1.2,1-2.7,1.7-4.4,2.1c-1.7,0.4-3.6,0.6-5.6,0.6c-2.7,0-5-0.3-6.8-0.8c-1.8-0.5-3.2-1.3-4.3-2.3c-1-1-1.8-2.3-2.2-3.7
		c-0.4-1.5-0.6-3.1-0.6-4.9v-1.3h8.7V41z"/>
	<path class="st0" d="M370.1,3.6v10.8h5.6V21h-5.6v20.4c0,1.5,0.2,2.6,0.7,3.2s1.4,0.9,2.8,0.9c0.4,0,0.7,0,1.1,0
		c0.4,0,0.7-0.1,1.1-0.1V52c-1.1,0-2.1,0-3.1,0.1c-1,0.1-2.1,0.1-3.2,0.1c-1.9,0-3.4-0.1-4.6-0.4c-1.2-0.3-2.1-0.8-2.7-1.5
		s-1.1-1.8-1.3-3c-0.2-1.3-0.4-2.8-0.4-4.8V21h-4.9v-6.6h4.9V3.6H370.1z"/>
	<path class="st0" d="M379,25c0-2.2,0.3-4,1-5.5c0.7-1.5,1.6-2.7,2.8-3.6c1.2-0.9,2.6-1.6,4.2-2c1.6-0.4,3.3-0.6,5.1-0.6
		c2.9,0,5.2,0.3,7,0.8c1.8,0.6,3.2,1.4,4.1,2.4c1,1,1.6,2.3,2,3.7c0.4,1.4,0.5,3,0.5,4.7v19.8c0,1.8,0.1,3.1,0.2,4.1
		c0.2,1,0.5,2,0.9,3.1h-9.2c-0.3-0.6-0.6-1.2-0.7-1.9c-0.2-0.7-0.3-1.3-0.5-2h-0.1c-1.1,2-2.4,3.2-3.9,3.8c-1.5,0.6-3.4,0.9-5.7,0.9
		c-1.7,0-3.1-0.3-4.3-0.9c-1.2-0.6-2.1-1.4-2.8-2.4c-0.7-1-1.2-2.2-1.5-3.5c-0.3-1.3-0.5-2.6-0.5-3.8c0-1.8,0.2-3.3,0.6-4.6
		c0.4-1.3,0.9-2.4,1.7-3.3c0.8-0.9,1.8-1.7,2.9-2.3c1.2-0.6,2.6-1.1,4.3-1.6l5.5-1.5c1.4-0.4,2.4-0.9,3-1.5c0.6-0.7,0.8-1.6,0.8-2.9
		c0-1.4-0.3-2.6-1-3.4c-0.7-0.8-1.8-1.2-3.5-1.2c-1.5,0-2.6,0.4-3.4,1.3c-0.7,0.9-1.1,2.1-1.1,3.6v1.1H379V25z M394.6,34.4
		c-0.7,0.3-1.4,0.5-2,0.7c-2,0.4-3.4,1.1-4.2,2.1s-1.3,2.3-1.3,4c0,1.4,0.3,2.7,0.8,3.7c0.6,1,1.5,1.5,2.8,1.5c0.7,0,1.3-0.1,2-0.3
		c0.7-0.2,1.3-0.5,1.9-1c0.6-0.5,1.1-1.1,1.4-1.8c0.4-0.7,0.6-1.6,0.6-2.7v-7.4C396,33.7,395.3,34.1,394.6,34.4z"/>
	<path class="st0" d="M431.9,47.6c-1,1.9-2.4,3.2-4,4c-1.6,0.8-3.5,1.2-5.6,1.2c-3.1,0-5.4-0.8-7.1-2.4c-1.7-1.6-2.5-4.3-2.5-8.1
		V14.4h9.7v26c0,2,0.3,3.3,1,4.1c0.7,0.8,1.7,1.2,3.1,1.2c3.4,0,5.1-2.1,5.1-6.2v-25h9.7V52h-9.2v-4.4H431.9z"/>
	<path class="st0" d="M457,14.4v5h0.1c1-1.8,2.2-3.3,3.6-4.4c1.4-1.1,3.1-1.6,5.1-1.6c0.3,0,0.6,0,0.9,0c0.3,0,0.6,0.1,0.9,0.1v9.2
		c-0.5,0-1-0.1-1.5-0.1c-0.5,0-1,0-1.5,0c-0.8,0-1.7,0.1-2.5,0.4c-0.8,0.2-1.6,0.6-2.3,1.2c-0.7,0.5-1.3,1.2-1.7,2.1
		c-0.4,0.9-0.6,1.9-0.6,3.2V52h-9.7V14.4H457z"/>
	<path class="st0" d="M471,25c0-2.2,0.3-4,1-5.5c0.7-1.5,1.6-2.7,2.8-3.6c1.2-0.9,2.6-1.6,4.2-2c1.6-0.4,3.3-0.6,5.1-0.6
		c2.9,0,5.2,0.3,7,0.8c1.8,0.6,3.2,1.4,4.1,2.4c1,1,1.6,2.3,2,3.7c0.4,1.4,0.5,3,0.5,4.7v19.8c0,1.8,0.1,3.1,0.2,4.1
		c0.2,1,0.5,2,0.9,3.1h-9.2c-0.3-0.6-0.6-1.2-0.7-1.9c-0.2-0.7-0.3-1.3-0.5-2h-0.1c-1.1,2-2.4,3.2-3.9,3.8c-1.5,0.6-3.4,0.9-5.7,0.9
		c-1.7,0-3.1-0.3-4.3-0.9c-1.2-0.6-2.1-1.4-2.8-2.4c-0.7-1-1.2-2.2-1.5-3.5c-0.3-1.3-0.5-2.6-0.5-3.8c0-1.8,0.2-3.3,0.6-4.6
		c0.4-1.3,0.9-2.4,1.7-3.3c0.8-0.9,1.8-1.7,2.9-2.3c1.2-0.6,2.6-1.1,4.3-1.6l5.5-1.5c1.4-0.4,2.4-0.9,3-1.5c0.6-0.7,0.8-1.6,0.8-2.9
		c0-1.4-0.3-2.6-1-3.4c-0.7-0.8-1.8-1.2-3.5-1.2c-1.5,0-2.6,0.4-3.4,1.3c-0.7,0.9-1.1,2.1-1.1,3.6v1.1H471V25z M486.5,34.4
		c-0.7,0.3-1.4,0.5-2,0.7c-2,0.4-3.4,1.1-4.2,2.1s-1.3,2.3-1.3,4c0,1.4,0.3,2.7,0.8,3.7c0.6,1,1.5,1.5,2.8,1.5c0.7,0,1.3-0.1,2-0.3
		s1.3-0.5,1.9-1c0.6-0.5,1.1-1.1,1.4-1.8c0.4-0.7,0.6-1.6,0.6-2.7v-7.4C488,33.7,487.3,34.1,486.5,34.4z"/>
	<path class="st0" d="M514,14.4v4.4h0.1c1-1.9,2.4-3.2,4-4.1c1.6-0.9,3.5-1.3,5.6-1.3c3.1,0,5.4,0.8,7.1,2.5
		c1.7,1.7,2.5,4.4,2.5,8.2V52h-9.7v-26c0-2-0.3-3.3-1-4.1s-1.7-1.2-3.1-1.2c-3.4,0-5.1,2.1-5.1,6.2v25h-9.7V14.4H514z"/>
	<path class="st0" d="M551.5,3.6v10.8h5.6V21h-5.6v20.4c0,1.5,0.2,2.6,0.7,3.2s1.4,0.9,2.8,0.9c0.4,0,0.7,0,1.1,0
		c0.4,0,0.7-0.1,1-0.1V52c-1.1,0-2.1,0-3.1,0.1c-1,0.1-2.1,0.1-3.2,0.1c-1.9,0-3.4-0.1-4.6-0.4c-1.2-0.3-2.1-0.8-2.7-1.5
		s-1.1-1.8-1.3-3c-0.2-1.3-0.3-2.8-0.3-4.8V21h-4.9v-6.6h4.9V3.6H551.5z"/>
	<path class="st0" d="M274.9,57.1c4.2,0,7.5,1.1,9.8,3.2c2.3,2.1,3.5,5.4,3.5,9.7c0,3.4-0.7,6.1-2,8.2c-1.4,2.1-3.5,3.5-6.3,4.1v0.1
		c2.5,0.4,4.4,1.2,5.5,2.4c1.2,1.3,1.9,3.3,2.2,6.1c0.1,0.9,0.2,1.9,0.2,3c0,1.1,0.1,2.3,0.1,3.7c0.1,2.7,0.2,4.7,0.4,6.1
		c0.3,1.4,0.9,2.4,1.8,2.9v0.4h-10.9c-0.5-0.7-0.8-1.5-1-2.4c-0.1-0.9-0.2-1.9-0.3-2.8l-0.3-9.6c-0.1-2-0.6-3.5-1.5-4.6
		c-0.9-1.1-2.4-1.7-4.5-1.7h-5.4V107h-10.1v-50H274.9z M270.5,78.9c2.4,0,4.3-0.6,5.6-1.7c1.3-1.1,2-3.1,2-5.8c0-4.6-2.3-6.9-7-6.9
		h-4.8v14.4H270.5z"/>
	<path class="st0" d="M303.1,92.7c0,1.1,0.1,2.2,0.2,3.3c0.2,1,0.4,2,0.8,2.8c0.4,0.8,0.9,1.5,1.5,2s1.4,0.7,2.2,0.7
		c1.6,0,2.8-0.6,3.6-1.8c0.7-1.2,1.3-2.9,1.5-5.3h8.7c-0.2,4.4-1.4,7.7-3.5,10c-2.1,2.3-5.5,3.4-10.2,3.4c-3.5,0-6.2-0.6-8.2-1.8
		c-2-1.2-3.4-2.7-4.3-4.6c-0.9-1.9-1.5-4.1-1.7-6.4c-0.2-2.4-0.3-4.8-0.3-7.1c0-2.5,0.2-4.9,0.5-7.3c0.3-2.3,1-4.4,2.1-6.2
		c1-1.8,2.6-3.3,4.5-4.3c2-1.1,4.6-1.6,7.8-1.6c2.8,0,5.1,0.5,6.9,1.4c1.8,0.9,3.2,2.2,4.2,3.9c1,1.7,1.7,3.7,2.1,6
		c0.4,2.4,0.6,5,0.6,7.9v2.2h-19.1V92.7z M312.7,80.1c-0.1-1.1-0.4-2-0.7-2.8c-0.3-0.8-0.8-1.4-1.5-1.8s-1.4-0.6-2.4-0.6
		c-1,0-1.8,0.2-2.4,0.7s-1.1,1-1.5,1.8c-0.4,0.7-0.6,1.5-0.8,2.4c-0.2,0.9-0.2,1.8-0.2,2.7v1.5h9.9C313,82.5,312.9,81.2,312.7,80.1z
		"/>
	<path class="st0" d="M354.8,69.4l-9.5,37.7h-11.2l-9.7-37.7h10.1l5.4,27h0.1l5.1-27H354.8z"/>
	<path class="st0" d="M368.4,56.5v8.3h-9.7v-8.3H368.4z M368.4,69.4V107h-9.7V69.4H368.4z"/>
	<path class="st0" d="M383.4,92.7c0,1.1,0.1,2.2,0.2,3.3c0.2,1,0.4,2,0.8,2.8c0.4,0.8,0.9,1.5,1.5,2c0.6,0.5,1.4,0.7,2.2,0.7
		c1.6,0,2.8-0.6,3.6-1.8c0.7-1.2,1.3-2.9,1.5-5.3h8.7c-0.2,4.4-1.4,7.7-3.5,10c-2.1,2.3-5.5,3.4-10.2,3.4c-3.5,0-6.2-0.6-8.2-1.8
		c-2-1.2-3.4-2.7-4.3-4.6c-0.9-1.9-1.5-4.1-1.7-6.4c-0.2-2.4-0.3-4.8-0.3-7.1c0-2.5,0.2-4.9,0.5-7.3c0.3-2.3,1-4.4,2.1-6.2
		c1-1.8,2.6-3.3,4.5-4.3c2-1.1,4.6-1.6,7.8-1.6c2.8,0,5.1,0.5,6.9,1.4c1.8,0.9,3.2,2.2,4.2,3.9c1,1.7,1.7,3.7,2.1,6
		c0.4,2.4,0.6,5,0.6,7.9v2.2h-19.1V92.7z M393,80.1c-0.1-1.1-0.4-2-0.7-2.8c-0.3-0.8-0.8-1.4-1.5-1.8c-0.6-0.4-1.4-0.6-2.4-0.6
		s-1.8,0.2-2.4,0.7c-0.6,0.4-1.1,1-1.5,1.8s-0.6,1.5-0.8,2.4c-0.2,0.9-0.2,1.8-0.2,2.7v1.5h9.9C393.2,82.5,393.2,81.2,393,80.1z"/>
	<path class="st0" d="M414.5,69.4l4.4,26.7h0.1l4.7-26.7h10.5l5,26.7h0.1l4.5-26.7h9.2L445,107h-11l-5-26.7h-0.1l-4.7,26.7H413
		l-8.2-37.7H414.5z"/>
	<path class="st0" d="M463.9,96c0,1.6,0.4,3,1.3,4c0.9,1,2.1,1.5,3.7,1.5c1.5,0,2.7-0.4,3.6-1.1c0.9-0.7,1.3-1.9,1.3-3.4
		c0-1.2-0.4-2.1-1.1-2.8c-0.7-0.6-1.5-1.1-2.4-1.5l-6.8-2.5c-2.7-0.9-4.7-2.3-6-4c-1.4-1.7-2-3.9-2-6.5c0-1.5,0.3-3,0.8-4.4
		c0.5-1.4,1.3-2.6,2.5-3.6c1.1-1,2.6-1.8,4.3-2.5c1.8-0.6,3.9-0.9,6.3-0.9c4.4,0,7.6,0.9,9.7,2.8c2.1,1.9,3.1,4.5,3.1,7.9v1.5h-8.7
		c0-2-0.3-3.4-0.9-4.3s-1.7-1.4-3.3-1.4c-1.2,0-2.3,0.3-3.2,1c-0.9,0.7-1.4,1.7-1.4,3c0,0.9,0.3,1.8,0.9,2.5
		c0.6,0.7,1.7,1.4,3.3,1.9l5.8,2c3,1,5.2,2.4,6.4,4c1.3,1.7,1.9,3.9,1.9,6.8c0,2-0.3,3.7-1,5.2c-0.7,1.5-1.7,2.7-2.9,3.7
		c-1.2,1-2.7,1.7-4.4,2.1c-1.7,0.4-3.6,0.6-5.6,0.6c-2.7,0-5-0.3-6.8-0.8c-1.8-0.5-3.2-1.3-4.3-2.3c-1.1-1-1.8-2.3-2.2-3.7
		c-0.4-1.5-0.6-3.1-0.6-4.9v-1.3h8.7V96z"/>
</g>
<g id="Y6is39_1_" class="st1">
	
		<image style="display:inline;overflow:visible;" width="254" height="118" id="Y6is39_2_" xlink:href="468CA3C4179D3BE7.jpg"  transform="matrix(1 0 0 1 -7.2801 -4.9404)">
	</image>
</g>
<polyline class="st0" points="50.2,62.8 39,1.8 0,1.8 0,107.3 25.8,107.3 25.8,29.6 40.8,107.3 60.2,107.3 74.5,29.6 74.5,107.3 
	100.5,107.3 100.5,91.6 84.8,1.8 61.8,1.8 "/>
<polygon class="st0" points="119.7,74.1 129.5,1.8 111.1,1.8 "/>
<polygon class="st0" points="154.8,1.8 165.1,74.1 172.1,1.8 "/>
<polygon class="st0" points="141.9,36.2 133.4,106.7 150.6,106.7 "/>
<g>
	<path class="st0" d="M216.6,29.8c0-3.1-0.6-5.8-1.9-8s-3.2-3.3-5.9-3.3c-2.9,0-5.1,1-6.5,2.9c-1.4,1.9-2.1,4-2.1,6.4
		c0,3.4,1.1,6.2,3.3,8.2c2.2,2,5,3.7,8.3,5.2c3.3,1.5,6.9,3,10.7,4.5c3.8,1.5,7.4,3.5,10.7,6c3.3,2.5,6.1,5.7,8.3,9.6
		s3.3,9.1,3.3,15.5c0,11.2-3.2,19.3-9.6,24.3c-6.4,5-15.6,7.6-27.6,7.6c-5.7,0-10.7-0.5-15.1-1.4c-4.4-0.9-8-2.5-11-4.9
		c-3-2.3-5.3-5.3-6.8-9c-1.6-3.7-2.4-8.3-2.4-13.8v-3.7h26.5v2.5c0,4.5,0.8,7.7,2.5,9.5c1.7,1.8,3.8,2.7,6.5,2.7c2.8,0,5-1,6.5-2.9
		c1.5-2,2.3-4.4,2.3-7.2c0-3.4-1.1-6.1-3.2-8.2c-2.1-2-4.8-3.7-7.9-5.1c-3.2-1.4-6.6-2.9-10.4-4.3s-7.2-3.4-10.4-5.7
		c-3.2-2.4-5.8-5.4-7.9-9.3c-2.1-3.8-3.2-8.8-3.2-15c0-10.7,2.8-18.8,8.5-24.4C188,2.8,196.6,0,208.2,0c12,0,20.6,2.6,25.9,7.7
		c5.3,5.1,8,13.4,8,24.6h-25.6V29.8z"/>
</g>
</svg>
