<svg xmlns="http://www.w3.org/2000/svg" viewBox="0 0 58 58"><path d="M29 0C13 0 0 13 0 29s13 29 29 29 29-13 29-29S45 0 29 0zm0 2c14.9 0 27 12.1 27 27S43.9 56 29 56 2 43.9 2 29 14.1 2 29 2zm-.4 4c-5.9.1-11.6 2.5-15.9 6.7C8.4 17.1 6 22.9 6 29s2.4 11.9 6.7 16.3c.2.2.5.3.7.3.3 0 .5-.1.7-.3.4-.4.4-1 0-1.4-.5-.5-.9-.9-1.3-1.4v-.1c2.2-4.6 6.2-7.8 10.8-8.8C25.2 35 27 36 29 36s3.8-1 5.3-2.5c4.6 1 8.5 4.2 10.8 8.8v.1c-.4.5-.8 1-1.3 1.4-.4.4-.4 1 0 1.4.2.2.5.3.7.3s.5-.1.7-.3C49.6 40.9 52 35.1 52 29s-2.4-11.9-6.7-16.3c-.7-.7-1.4-1.3-2.1-1.9-.4-.3-1.1-.3-1.4.2-.3.4-.3 1.1.2 1.4.7.5 1.3 1.1 1.9 1.7 4 4 6.2 9.2 6.2 14.8 0 4.2-1.2 8.2-3.5 11.7-2.4-4.4-6.3-7.5-10.7-8.8 1.4-2 2.3-4.5 2.3-6.8v-2c0-5-4-9-9-9s-9 4-9 9v2c0 2.3.9 4.8 2.2 6.8-4.5 1.3-8.3 4.4-10.7 8.8C9.2 37.2 8 33.2 8 29c0-5.6 2.2-10.9 6.2-14.8 4.7-4.7 11.5-6.9 18.2-5.9.6.1 1.1-.3 1.1-.8s-.3-1.1-.8-1.1c-1.4-.3-2.8-.4-4.1-.4zm8.1 1.4c-.4 0-.7.3-.9.6-.2.5.1 1.1.6 1.3l2.1.9c.1.1.3.1.5.1.4 0 .7-.2.9-.5.2-.5 0-1.1-.4-1.3-.7-.4-1.5-.7-2.3-1-.3-.1-.4-.1-.5-.1zM29 16c3.9 0 7 3.1 7 7v2c0 4-3.3 9-7 9s-7-5-7-9v-2c0-3.9 3.1-7 7-7zm-9.6 29.4c-.4 0-.8.1-1 .5l-1 1.7c-.3.5-.1 1.1.4 1.4.2.1.3.1.5.1.3 0 .7-.2.9-.5l1-1.7c.3-.5.1-1.1-.4-1.4-.2 0-.3-.1-.4-.1zm19.2 0c-.1 0-.3.1-.4.1-.5.3-.6.9-.4 1.4l1 1.7c.2.3.5.5.9.5.2 0 .3 0 .5-.1.5-.3.6-.9.4-1.4l-1-1.7c-.2-.4-.6-.6-1-.5zm-14.8 1.9c-.4.1-.7.3-.8.7l-.5 2c-.1.5.2 1.1.7 1.2h.3c.4 0 .8-.3 1-.7l.5-1.9c.1-.5-.2-1.1-.7-1.2-.2-.1-.4-.1-.5-.1zm10.4 0h-.4c-.5.1-.9.7-.7 1.2l.5 1.9c.1.4.5.7 1 .7h.3c.5-.1.9-.7.7-1.2l-.6-1.8c-.1-.4-.4-.7-.8-.8zM29 48c-.6 0-1 .4-1 1v2c0 .6.4 1 1 1s1-.4 1-1v-2c0-.6-.4-1-1-1z" fill="#005fc3"/></svg>