<svg xmlns="http://www.w3.org/2000/svg" viewBox="0 0 50 50"><path d="M1 10v10c0 3.3 1.4 4.5 2.4 5.3.5.4.6.5.6.7v10c0 3.5-.3 6 2 6 2.5 0 2-3.2 2-6V26c0-.2 0-.2.6-.6 1-.7 2.4-1.8 2.4-5.2V10H9v9c0 .6-.4 1-1 1s-1-.4-1-1v-9H5v9c0 .6-.4 1-1 1s-1-.4-1-1v-9H1zm42.9 0c-.2 0-.3.1-.5.2s-.4.5-.4.8v24.2c0 3.5-.5 6.8 2 6.8 2.2 0 2-3.3 2-7v-7c0-.9.4-1.8.8-2.8.6-1.4 1.2-3 1.2-5.2 0-1.2.7-7.3-4.6-9.9-.1-.1-.3-.1-.5-.1zm-17.4 1c-8 0-14.5 6.5-14.5 14.5S18.5 40 26.5 40 41 33.5 41 25.5 34.5 11 26.5 11zm-.6 5c.5 0 1 .4 1.1.9s-.4 1-.9 1c-4 .2-7.1 3.5-7.1 7.5 0 4.1 3.4 7.5 7.5 7.5 4 0 7.3-3.1 7.5-7.1 0-.6.5-1 1-.9.6 0 1 .5.9 1.1-.3 5-4.4 8.9-9.5 8.9-5.2 0-9.5-4.3-9.5-9.5.1-4.9 4-9.1 9-9.4z" fill="#005fc3"/></svg>