<svg xmlns="http://www.w3.org/2000/svg" viewBox="0 0 1000 1000"><path d="M796.8 963.9c-4.1 0-8.1-1.2-11.6-3.7L502.6 759 225.1 958.7c-7.1 5.1-16.5 5-23.5-.1s-9.9-14.1-7.3-22.4l104.3-322.5L18.4 414.3c-7.1-5.1-10.1-14.1-7.5-22.5 2.7-8.3 10.4-13.9 19.1-13.9h344.8L480.9 50c2.7-8.2 10.3-13.8 19-13.9h.1c8.6 0 16.3 5.5 19 13.7l109.7 328.1h341.2c8.7 0 16.4 5.6 19.1 13.9 2.7 8.3-.3 17.4-7.4 22.4L706.9 611.9l109 325.6c2.7 8.2-.1 17.3-7.1 22.5-3.6 2.6-7.8 3.9-12 3.9zM502.5 714.3c4.1 0 8.2 1.2 11.6 3.7l244.1 173.7-94.1-281.2c-2.8-8.3.2-17.5 7.3-22.6l236.3-170H614.3c-8.7 0-16.3-5.5-19-13.7l-94.9-284L408.6 404c-2.7 8.3-10.4 13.9-19.1 13.9H92.8l241 171.6c7.1 5.1 10.1 14.2 7.4 22.5l-90 278.3L490.7 718c3.6-2.4 7.7-3.7 11.8-3.7z" fill="#fdd344"/></svg>