<svg xmlns="http://www.w3.org/2000/svg" viewBox="0 0 49.5 47.2"><path d="M24.6 0c-.4 0-.7.3-.8.6l-6.2 15.5L.9 17.3c-.5.1-1 .5-.9 1.1 0 .3.1.5.3.7l12.8 10.7-4 16.2c-.1.5.2 1.1.7 1.2.3.1.5 0 .8-.1l14.2-8.9L39 47.1c.5.3 1.1.2 1.4-.3.1-.2.2-.5.1-.8l-4.1-16.2L49.2 19c.4-.4.5-1 .1-1.4-.2-.2-.4-.3-.7-.3l-16.7-1.2L25.7.6c-.2-.4-.6-.7-1.1-.6zm.1 3.7l5.5 13.8c.1.4.5.6.9.6l14.8 1-11.4 9.5c-.3.3-.4.7-.3 1L37.8 44l-12.6-7.9c-.3-.2-.7-.2-1.1 0L11.5 44l3.6-14.4c.1-.4 0-.8-.3-1L3.6 19.1l14.8-1c.4 0 .7-.3.9-.6l5.4-13.8z" fill="#fdd344"/></svg>