<svg xmlns="http://www.w3.org/2000/svg" viewBox="0 0 557.1 108.6"><path d="M274.9 2.1c4.2 0 7.5 1.1 9.8 3.2 2.3 2.1 3.5 5.4 3.5 9.7 0 3.4-.7 6.1-2 8.2-1.4 2.1-3.5 3.5-6.3 4.1v.1c2.5.4 4.4 1.2 5.5 2.5 1.2 1.3 1.9 3.3 2.2 6.1.1.9.2 1.9.2 3s.1 2.3.1 3.7c.1 2.7.2 4.7.4 6.1.3 1.4.9 2.4 1.8 2.9v.3h-10.9c-.5-.7-.8-1.5-1-2.4-.1-.9-.2-1.9-.3-2.8l-.3-9.6c-.1-2-.6-3.5-1.5-4.6-.9-1.1-2.4-1.7-4.5-1.7h-5.4V52h-10.1V2h18.8zm-4.4 21.8c2.4 0 4.3-.6 5.6-1.7 1.3-1.1 2-3.1 2-5.8 0-4.6-2.3-6.9-7-6.9h-4.8v14.4h4.2zm32.6 13.8c0 1.1.1 2.2.2 3.3.2 1.1.4 2 .8 2.8.4.8.9 1.5 1.5 2s1.4.7 2.2.7c1.6 0 2.8-.6 3.6-1.8.7-1.2 1.3-2.9 1.5-5.3h8.7c-.2 4.4-1.4 7.7-3.5 10s-5.5 3.4-10.2 3.4c-3.5 0-6.2-.6-8.2-1.8s-3.4-2.7-4.3-4.6c-.9-1.9-1.5-4.1-1.7-6.4-.2-2.4-.3-4.8-.3-7.1 0-2.5.2-4.9.5-7.3.3-2.3 1-4.4 2.1-6.2s2.6-3.3 4.5-4.3c2-1.1 4.6-1.6 7.8-1.6 2.8 0 5.1.5 6.9 1.4 1.8.9 3.2 2.2 4.2 3.9 1 1.7 1.7 3.7 2.1 6 .4 2.4.6 5 .6 7.9v2.2H303v2.8zm9.6-12.6c-.1-1.1-.4-2-.7-2.8-.3-.8-.8-1.4-1.5-1.8-.6-.4-1.4-.6-2.4-.6s-1.8.2-2.4.7c-.6.4-1.1 1-1.5 1.8-.4.7-.6 1.5-.8 2.4-.2.9-.2 1.8-.2 2.7V29h9.9c-.1-1.5-.2-2.8-.4-3.9zM334.4 41c0 1.6.4 3 1.3 4s2.1 1.5 3.7 1.5c1.5 0 2.7-.4 3.6-1.1.9-.7 1.3-1.9 1.3-3.4 0-1.2-.3-2.1-1-2.8-.7-.6-1.5-1.1-2.5-1.5l-6.8-2.4c-2.7-.9-4.7-2.3-6-4-1.4-1.7-2-3.9-2-6.5 0-1.5.3-3 .8-4.4.5-1.4 1.3-2.6 2.4-3.6 1.1-1 2.6-1.8 4.3-2.5 1.8-.6 3.9-.9 6.3-.9 4.4 0 7.6.9 9.7 2.8 2.1 1.9 3.2 4.5 3.2 7.9v1.5H344c0-2-.3-3.4-.9-4.3-.6-.9-1.7-1.4-3.3-1.4-1.2 0-2.3.3-3.2 1-.9.7-1.4 1.7-1.4 3 0 .9.3 1.8.9 2.5.6.7 1.7 1.4 3.3 1.9l5.8 2c3 1 5.2 2.4 6.4 4 1.3 1.7 1.9 3.9 1.9 6.8 0 2-.3 3.7-1 5.2s-1.7 2.7-2.9 3.7-2.7 1.7-4.4 2.1c-1.7.4-3.6.6-5.6.6-2.7 0-5-.3-6.8-.8-1.8-.5-3.2-1.3-4.3-2.3-1-1-1.8-2.3-2.2-3.7-.4-1.5-.6-3.1-.6-4.9v-1.3h8.7V41zm35.7-37.4v10.8h5.6V21h-5.6v20.4c0 1.5.2 2.6.7 3.2s1.4.9 2.8.9h1.1c.4 0 .7-.1 1.1-.1V52c-1.1 0-2.1 0-3.1.1s-2.1.1-3.2.1c-1.9 0-3.4-.1-4.6-.4-1.2-.3-2.1-.8-2.7-1.5s-1.1-1.8-1.3-3c-.2-1.3-.4-2.8-.4-4.8V21h-4.9v-6.6h4.9V3.6h9.6zM379 25c0-2.2.3-4 1-5.5s1.6-2.7 2.8-3.6c1.2-.9 2.6-1.6 4.2-2 1.6-.4 3.3-.6 5.1-.6 2.9 0 5.2.3 7 .8 1.8.6 3.2 1.4 4.1 2.4 1 1 1.6 2.3 2 3.7.4 1.4.5 3 .5 4.7v19.8c0 1.8.1 3.1.2 4.1.2 1 .5 2 .9 3.1h-9.2c-.3-.6-.6-1.2-.7-1.9-.2-.7-.3-1.3-.5-2h-.1c-1.1 2-2.4 3.2-3.9 3.8-1.5.6-3.4.9-5.7.9-1.7 0-3.1-.3-4.3-.9-1.2-.6-2.1-1.4-2.8-2.4-.7-1-1.2-2.2-1.5-3.5-.3-1.3-.5-2.6-.5-3.8 0-1.8.2-3.3.6-4.6.4-1.3.9-2.4 1.7-3.3.8-.9 1.8-1.7 2.9-2.3 1.2-.6 2.6-1.1 4.3-1.6l5.5-1.5c1.4-.4 2.4-.9 3-1.5.6-.7.8-1.6.8-2.9 0-1.4-.3-2.6-1-3.4-.7-.8-1.8-1.2-3.5-1.2-1.5 0-2.6.4-3.4 1.3-.7.9-1.1 2.1-1.1 3.6v1.1H379V25zm15.6 9.4c-.7.3-1.4.5-2 .7-2 .4-3.4 1.1-4.2 2.1s-1.3 2.3-1.3 4c0 1.4.3 2.7.8 3.7.6 1 1.5 1.5 2.8 1.5.7 0 1.3-.1 2-.3.7-.2 1.3-.5 1.9-1 .6-.5 1.1-1.1 1.4-1.8.4-.7.6-1.6.6-2.7v-7.4c-.6.5-1.3.9-2 1.2zm37.3 13.2c-1 1.9-2.4 3.2-4 4-1.6.8-3.5 1.2-5.6 1.2-3.1 0-5.4-.8-7.1-2.4-1.7-1.6-2.5-4.3-2.5-8.1V14.4h9.7v26c0 2 .3 3.3 1 4.1.7.8 1.7 1.2 3.1 1.2 3.4 0 5.1-2.1 5.1-6.2v-25h9.7V52h-9.2v-4.4h-.2zM457 14.4v5h.1c1-1.8 2.2-3.3 3.6-4.4 1.4-1.1 3.1-1.6 5.1-1.6h.9c.3 0 .6.1.9.1v9.2c-.5 0-1-.1-1.5-.1h-1.5c-.8 0-1.7.1-2.5.4-.8.2-1.6.6-2.3 1.2-.7.5-1.3 1.2-1.7 2.1-.4.9-.6 1.9-.6 3.2V52h-9.7V14.4h9.2zM471 25c0-2.2.3-4 1-5.5s1.6-2.7 2.8-3.6c1.2-.9 2.6-1.6 4.2-2 1.6-.4 3.3-.6 5.1-.6 2.9 0 5.2.3 7 .8 1.8.6 3.2 1.4 4.1 2.4 1 1 1.6 2.3 2 3.7.4 1.4.5 3 .5 4.7v19.8c0 1.8.1 3.1.2 4.1.2 1 .5 2 .9 3.1h-9.2c-.3-.6-.6-1.2-.7-1.9-.2-.7-.3-1.3-.5-2h-.1c-1.1 2-2.4 3.2-3.9 3.8-1.5.6-3.4.9-5.7.9-1.7 0-3.1-.3-4.3-.9-1.2-.6-2.1-1.4-2.8-2.4-.7-1-1.2-2.2-1.5-3.5-.3-1.3-.5-2.6-.5-3.8 0-1.8.2-3.3.6-4.6.4-1.3.9-2.4 1.7-3.3.8-.9 1.8-1.7 2.9-2.3 1.2-.6 2.6-1.1 4.3-1.6l5.5-1.5c1.4-.4 2.4-.9 3-1.5.6-.7.8-1.6.8-2.9 0-1.4-.3-2.6-1-3.4-.7-.8-1.8-1.2-3.5-1.2-1.5 0-2.6.4-3.4 1.3-.7.9-1.1 2.1-1.1 3.6v1.1H471V25zm15.5 9.4c-.7.3-1.4.5-2 .7-2 .4-3.4 1.1-4.2 2.1s-1.3 2.3-1.3 4c0 1.4.3 2.7.8 3.7.6 1 1.5 1.5 2.8 1.5.7 0 1.3-.1 2-.3s1.3-.5 1.9-1c.6-.5 1.1-1.1 1.4-1.8.4-.7.6-1.6.6-2.7v-7.4c-.5.5-1.2.9-2 1.2zm27.5-20v4.4h.1c1-1.9 2.4-3.2 4-4.1 1.6-.9 3.5-1.3 5.6-1.3 3.1 0 5.4.8 7.1 2.5 1.7 1.7 2.5 4.4 2.5 8.2V52h-9.7V26c0-2-.3-3.3-1-4.1s-1.7-1.2-3.1-1.2c-3.4 0-5.1 2.1-5.1 6.2v25h-9.7V14.4h9.3zm37.5-10.8v10.8h5.6V21h-5.6v20.4c0 1.5.2 2.6.7 3.2s1.4.9 2.8.9h1.1c.4 0 .7-.1 1-.1V52c-1.1 0-2.1 0-3.1.1s-2.1.1-3.2.1c-1.9 0-3.4-.1-4.6-.4-1.2-.3-2.1-.8-2.7-1.5s-1.1-1.8-1.3-3c-.2-1.3-.3-2.8-.3-4.8V21H537v-6.6h4.9V3.6h9.6zM274.9 57.1c4.2 0 7.5 1.1 9.8 3.2 2.3 2.1 3.5 5.4 3.5 9.7 0 3.4-.7 6.1-2 8.2-1.4 2.1-3.5 3.5-6.3 4.1v.1c2.5.4 4.4 1.2 5.5 2.4 1.2 1.3 1.9 3.3 2.2 6.1.1.9.2 1.9.2 3s.1 2.3.1 3.7c.1 2.7.2 4.7.4 6.1.3 1.4.9 2.4 1.8 2.9v.4h-10.9c-.5-.7-.8-1.5-1-2.4-.1-.9-.2-1.9-.3-2.8l-.3-9.6c-.1-2-.6-3.5-1.5-4.6-.9-1.1-2.4-1.7-4.5-1.7h-5.4V107h-10.1V57h18.8zm-4.4 21.8c2.4 0 4.3-.6 5.6-1.7 1.3-1.1 2-3.1 2-5.8 0-4.6-2.3-6.9-7-6.9h-4.8v14.4h4.2zm32.6 13.8c0 1.1.1 2.2.2 3.3.2 1 .4 2 .8 2.8.4.8.9 1.5 1.5 2s1.4.7 2.2.7c1.6 0 2.8-.6 3.6-1.8.7-1.2 1.3-2.9 1.5-5.3h8.7c-.2 4.4-1.4 7.7-3.5 10s-5.5 3.4-10.2 3.4c-3.5 0-6.2-.6-8.2-1.8-2-1.2-3.4-2.7-4.3-4.6-.9-1.9-1.5-4.1-1.7-6.4-.2-2.4-.3-4.8-.3-7.1 0-2.5.2-4.9.5-7.3.3-2.3 1-4.4 2.1-6.2 1-1.8 2.6-3.3 4.5-4.3 2-1.1 4.6-1.6 7.8-1.6 2.8 0 5.1.5 6.9 1.4 1.8.9 3.2 2.2 4.2 3.9 1 1.7 1.7 3.7 2.1 6 .4 2.4.6 5 .6 7.9v2.2H303v2.8zm9.6-12.6c-.1-1.1-.4-2-.7-2.8-.3-.8-.8-1.4-1.5-1.8s-1.4-.6-2.4-.6-1.8.2-2.4.7-1.1 1-1.5 1.8c-.4.7-.6 1.5-.8 2.4-.2.9-.2 1.8-.2 2.7V84h9.9c-.1-1.5-.2-2.8-.4-3.9zm42.1-10.7l-9.5 37.7h-11.2l-9.7-37.7h10.1l5.4 27h.1l5.1-27h9.7zm13.6-12.9v8.3h-9.7v-8.3h9.7zm0 12.9V107h-9.7V69.4h9.7zm15 23.3c0 1.1.1 2.2.2 3.3.2 1 .4 2 .8 2.8.4.8.9 1.5 1.5 2s1.4.7 2.2.7c1.6 0 2.8-.6 3.6-1.8.7-1.2 1.3-2.9 1.5-5.3h8.7c-.2 4.4-1.4 7.7-3.5 10s-5.5 3.4-10.2 3.4c-3.5 0-6.2-.6-8.2-1.8-2-1.2-3.4-2.7-4.3-4.6-.9-1.9-1.5-4.1-1.7-6.4-.2-2.4-.3-4.8-.3-7.1 0-2.5.2-4.9.5-7.3.3-2.3 1-4.4 2.1-6.2 1-1.8 2.6-3.3 4.5-4.3 2-1.1 4.6-1.6 7.8-1.6 2.8 0 5.1.5 6.9 1.4 1.8.9 3.2 2.2 4.2 3.9 1 1.7 1.7 3.7 2.1 6 .4 2.4.6 5 .6 7.9v2.2h-19.1v2.8zm9.6-12.6c-.1-1.1-.4-2-.7-2.8-.3-.8-.8-1.4-1.5-1.8-.6-.4-1.4-.6-2.4-.6s-1.8.2-2.4.7c-.6.4-1.1 1-1.5 1.8s-.6 1.5-.8 2.4c-.2.9-.2 1.8-.2 2.7V84h9.9c-.2-1.5-.2-2.8-.4-3.9zm21.5-10.7l4.4 26.7h.1l4.7-26.7h10.5l5 26.7h.1l4.5-26.7h9.2l-8 37.6h-11l-5-26.7h-.1l-4.7 26.7H413l-8.2-37.7h9.7zM463.9 96c0 1.6.4 3 1.3 4s2.1 1.5 3.7 1.5c1.5 0 2.7-.4 3.6-1.1.9-.7 1.3-1.9 1.3-3.4 0-1.2-.4-2.1-1.1-2.8-.7-.6-1.5-1.1-2.4-1.5l-6.8-2.5c-2.7-.9-4.7-2.3-6-4-1.4-1.7-2-3.9-2-6.5 0-1.5.3-3 .8-4.4.5-1.4 1.3-2.6 2.5-3.6 1.1-1 2.6-1.8 4.3-2.5 1.8-.6 3.9-.9 6.3-.9 4.4 0 7.6.9 9.7 2.8 2.1 1.9 3.1 4.5 3.1 7.9v1.5h-8.7c0-2-.3-3.4-.9-4.3s-1.7-1.4-3.3-1.4c-1.2 0-2.3.3-3.2 1-.9.7-1.4 1.7-1.4 3 0 .9.3 1.8.9 2.5.6.7 1.7 1.4 3.3 1.9l5.8 2c3 1 5.2 2.4 6.4 4 1.3 1.7 1.9 3.9 1.9 6.8 0 2-.3 3.7-1 5.2s-1.7 2.7-2.9 3.7-2.7 1.7-4.4 2.1c-1.7.4-3.6.6-5.6.6-2.7 0-5-.3-6.8-.8-1.8-.5-3.2-1.3-4.3-2.3-1.1-1-1.8-2.3-2.2-3.7-.4-1.5-.6-3.1-.6-4.9v-1.3h8.7V96zM50.2 62.8L39 1.8H0v105.5h25.8V29.6l15 77.7h19.4l14.3-77.7v77.7h26V91.6L84.8 1.8h-23m57.9 72.3l9.8-72.3h-18.4zm35.1-72.3l10.3 72.3 7-72.3zm-12.9 34.4l-8.5 70.5h17.2zm74.7-6.4c0-3.1-.6-5.8-1.9-8s-3.2-3.3-5.9-3.3c-2.9 0-5.1 1-6.5 2.9-1.4 1.9-2.1 4-2.1 6.4 0 3.4 1.1 6.2 3.3 8.2 2.2 2 5 3.7 8.3 5.2 3.3 1.5 6.9 3 10.7 4.5 3.8 1.5 7.4 3.5 10.7 6 3.3 2.5 6.1 5.7 8.3 9.6s3.3 9.1 3.3 15.5c0 11.2-3.2 19.3-9.6 24.3-6.4 5-15.6 7.6-27.6 7.6-5.7 0-10.7-.5-15.1-1.4-4.4-.9-8-2.5-11-4.9-3-2.3-5.3-5.3-6.8-9-1.6-3.7-2.4-8.3-2.4-13.8v-3.7h26.5v2.5c0 4.5.8 7.7 2.5 9.5 1.7 1.8 3.8 2.7 6.5 2.7 2.8 0 5-1 6.5-2.9 1.5-2 2.3-4.4 2.3-7.2 0-3.4-1.1-6.1-3.2-8.2-2.1-2-4.8-3.7-7.9-5.1-3.2-1.4-6.6-2.9-10.4-4.3s-7.2-3.4-10.4-5.7c-3.2-2.4-5.8-5.4-7.9-9.3-2.1-3.8-3.2-8.8-3.2-15 0-10.7 2.8-18.8 8.5-24.4C188 2.8 196.6 0 208.2 0c12 0 20.6 2.6 25.9 7.7 5.3 5.1 8 13.4 8 24.6h-25.6v-2.5z" fill="#fff"/></svg>